<?xml version="1.0" encoding="utf-8"?>
<!-- Generator: Adobe Illustrator 27.0.0, SVG Export Plug-In . SVG Version: 6.00 Build 0)  -->
<svg version="1.1" id="Graphic_Elements" xmlns="http://www.w3.org/2000/svg" xmlns:xlink="http://www.w3.org/1999/xlink" x="0px"
	 y="0px" viewBox="0 0 1200 1200" style="enable-background:new 0 0 1200 1200;" xml:space="preserve">
<style type="text/css">
	.st0{fill:#FFFDF1;}
</style>
<path d="M600,1150c-303.8-0.2-550-246.7-549.8-550.5c0.1-220.8,132.3-420.2,335.7-506.3C666.2-24,988.5,108.3,1105.6,388.7
	c116.5,278.8-13.7,599.4-291.6,718.1C746.4,1135.4,673.5,1150.1,600,1150z M600,59.2C301.2,59.4,59.2,301.8,59.4,600.6
	c0.2,217.1,130.1,413.1,330.1,497.8c276.4,113.6,592.5-18.4,706-294.8c112-272.5-14.7-584.6-285-701.9C743.9,73.5,672.3,59,600,59.2
	z"/>
<path d="M105.9,575.3h-0.3c-2.5-0.2-4.5-2.3-4.3-4.8c13-219,167.3-403.9,380.4-455.9c2.4-0.6,5,0.8,5.6,3.3s-0.8,5-3.3,5.6
	c-0.1,0-0.1,0-0.2,0c-50.7,12.3-99.1,32.7-143.4,60.3c-135,84-220.8,228.4-230.1,387.2C110.4,573.4,108.4,575.3,105.9,575.3z"/>
<path class="st0" d="M130.9,762.8c-2,0-3.7-1.3-4.3-3.1c-14.2-42.1-22.7-85.9-25.2-130.2c-0.1-2.5,1.8-4.7,4.3-4.8s4.7,1.8,4.8,4.3
	l0,0c2.5,43.5,10.8,86.5,24.7,127.8c0.8,2.4-0.5,5-2.9,5.8C131.9,762.7,131.4,762.8,130.9,762.8z"/>
<path d="M600,1099.5c-191.1,0-365.5-108.9-449.2-280.7c-1.2-2.2-0.4-5,1.8-6.2s5-0.4,6.2,1.8c0.1,0.1,0.1,0.2,0.2,0.4
	c82.2,168.6,253.4,275.6,440.9,275.5c2.5,0,4.6,2.1,4.6,4.6C604.6,1097.4,602.5,1099.5,600,1099.5L600,1099.5z"/>
<path d="M658.4,1096.1c-2.5,0-4.6-2-4.6-4.6c0-2.3,1.7-4.3,4.1-4.6c65.1-7.6,128-28.3,184.9-60.9c55.6-31.7,104.5-74.1,143.9-124.6
	c1.6-2,4.4-2.3,6.4-0.8s2.3,4.4,0.8,6.4c-40.1,51.5-89.9,94.6-146.5,126.9c-58,33.2-122.1,54.3-188.4,62
	C658.7,1096,658.6,1096.1,658.4,1096.1z"/>
<path d="M1023,861.5c-2.5,0-4.6-2-4.6-4.5c0-0.9,0.2-1.7,0.7-2.5C1159.8,623.2,1086.3,321.7,855,181c-76.8-46.7-165-71.4-255-71.4
	c-19.3,0-38.7,1.1-57.9,3.4c-2.5,0.1-4.7-1.8-4.8-4.4c-0.1-2.2,1.4-4.2,3.6-4.7c19.6-2.3,39.3-3.5,59-3.5
	c275.9,0,499.6,223.8,499.5,499.7c0,91.4-25.1,181-72.5,259.1C1026.2,860.7,1024.6,861.6,1023,861.5z"/>
<path d="M457.3,806.8c-27.3,0-49.5-22.2-49.5-49.5v-18.7c-15.8,22.3-46.7,27.5-69,11.7C325.7,741,318,726,318,710v-50.9
	c-33.3-2.5-58.3-31.6-55.8-64.9c2.2-29.9,26-53.6,55.8-55.8v-50.9c0-27.3,22.2-49.5,49.5-49.5c16,0,31.1,7.8,40.4,20.8v-18.7
	c0.8-27.3,23.6-48.9,50.9-48.1c26.2,0.7,47.3,21.8,48.1,48.1v317.1C506.7,784.6,484.6,806.8,457.3,806.8z M416.9,710v47.3
	c0.4,22.3,18.7,40.1,41,39.7c21.8-0.3,39.4-17.9,39.7-39.7V440.2c-0.4-22.3-18.7-40.1-41-39.7c-21.8,0.3-39.4,17.9-39.7,39.7v47.3
	c0,2.5-2.1,4.6-4.6,4.6s-4.6-2.1-4.6-4.6c0-22.3-18.1-40.4-40.4-40.4S327,465.2,327,487.5v55.3c0,2.5-2.1,4.6-4.6,4.6l0,0
	c-28.4,0-51.4,23-51.4,51.4s23,51.4,51.4,51.4c2.5,0,4.5,2.1,4.5,4.6V710c0,22.3,18.1,40.3,40.4,40.3s40.4-18.1,40.4-40.3
	c0-2.5,2.1-4.6,4.6-4.6S416.9,707.5,416.9,710L416.9,710L416.9,710z"/>
<path d="M322.5,635.1c-20.1,0-36.4-16.3-36.4-36.4c0-2.5,2.1-4.6,4.6-4.6s4.6,2.1,4.6,4.6l0,0c0,15,12.2,27.2,27.2,27.3l0,0
	c2.5,0,4.6,2,4.6,4.6C327.1,633.1,325,635.2,322.5,635.1C322.5,635.2,322.5,635.2,322.5,635.1L322.5,635.1z"/>
<path d="M412.3,715.4c-2.5,0-4.6-2.1-4.6-4.6l0,0v-44.2c0-2.5,2.1-4.6,4.6-4.6s4.6,2.1,4.6,4.6l0,0v44.2
	C416.8,713.3,414.8,715.4,412.3,715.4z"/>
<path d="M412.3,642.6c-2.5,0-4.6-2-4.6-4.6V530.2c0-2.5,2.1-4.6,4.6-4.6s4.6,2.1,4.6,4.6V638C416.9,640.5,414.8,642.6,412.3,642.6
	L412.3,642.6z"/>
<path d="M322.5,585.2c-2.5,0-4.6-2.1-4.6-4.6l0,0v-17.1c0-2.5,2.1-4.6,4.6-4.6s4.6,2.1,4.6,4.6l0,0v17.1
	C327,583.1,325,585.2,322.5,585.2L322.5,585.2z"/>
<path d="M472.6,571.5c-2.5,0-4.6-2.1-4.6-4.6l0,0v-28.3c0-2.5,2.1-4.6,4.6-4.6s4.6,2.1,4.6,4.6V567
	C477.2,569.5,475.2,571.5,472.6,571.5z"/>
<path d="M472.6,514.7c-2.5,0-4.6-2.1-4.6-4.6v-69.2c0-2.5,2.1-4.6,4.6-4.6s4.6,2.1,4.6,4.6v69.2
	C477.2,512.6,475.2,514.7,472.6,514.7L472.6,514.7z"/>
<path d="M441.8,759.5c-2.5,0-4.6-2.1-4.6-4.6l0,0v-68.3c0-2.5,2.1-4.6,4.6-4.6s4.6,2.1,4.6,4.6l0,0v68.3
	C446.3,757.4,444.3,759.5,441.8,759.5z"/>
<path d="M322.5,659.3c-2.5,0-4.6-2.1-4.6-4.6l0,0v-45.5c0-2.5,2.1-4.6,4.6-4.6s4.6,2.1,4.6,4.6l0,0v45.5
	C327,657.2,325,659.3,322.5,659.3L322.5,659.3z"/>
<path d="M412.3,504.5c-2.5,0-4.6-2.1-4.6-4.6v-12.4c0-2.5,2.1-4.6,4.6-4.6s4.6,2.1,4.6,4.6l0,0v12.4
	C416.9,502.4,414.8,504.5,412.3,504.5L412.3,504.5z"/>
<path d="M742.7,809.3L742.7,809.3c-27.3,0-49.5-22.2-49.5-49.5V442.7c0.5-27.3,23.2-49.1,50.5-48.5c26.6,0.5,48,21.9,48.5,48.5v18.7
	c15.8-22.3,46.7-27.6,69-11.8c13.1,9.3,20.9,24.3,20.9,40.4v50.8c33.3,2.5,58.3,31.6,55.8,64.9c-2.2,29.9-26,53.6-55.8,55.8v50.8
	c0,27.3-22.1,49.5-49.5,49.5c-16,0-31.1-7.8-40.4-20.9v18.7C792.2,787.1,770.1,809.3,742.7,809.3z M742.7,402.3
	c-22.3,0-40.3,18.1-40.3,40.4v317.1c0.4,22.3,18.7,40.1,41,39.7c21.8-0.3,39.4-17.9,39.7-39.7v-47.3c-0.1-2.5,1.8-4.7,4.4-4.8
	s4.7,1.8,4.8,4.4c0,0.1,0,0.3,0,0.4c0.4,22.3,18.7,40.1,41,39.7c21.8-0.3,39.4-17.9,39.7-39.7v-55.3c0-2.5,2.1-4.6,4.6-4.6l0,0
	c28.4,0,51.4-23,51.4-51.4s-23-51.4-51.4-51.4c-2.5,0-4.5-2.1-4.5-4.6V490c-0.4-22.3-18.7-40.1-41-39.7
	c-21.8,0.3-39.4,17.9-39.7,39.7c0.1,2.5-1.8,4.7-4.4,4.8s-4.7-1.8-4.8-4.4c0-0.1,0-0.3,0-0.4v-47.3
	C783.1,420.4,765,402.4,742.7,402.3L742.7,402.3z"/>
<path d="M909.3,605.8c-2.5,0-4.6-2.1-4.6-4.6l0,0c0-15-12.2-27.2-27.2-27.3c-2.5,0.1-4.7-1.8-4.8-4.4s1.8-4.7,4.4-4.8
	c0.1,0,0.3,0,0.4,0c20.1,0,36.3,16.3,36.4,36.4C913.9,603.7,911.9,605.8,909.3,605.8C909.4,605.8,909.3,605.8,909.3,605.8z"/>
<path d="M787.7,538c-2.5,0-4.6-2.1-4.6-4.6l0,0v-44.2c0-2.5,2-4.6,4.6-4.6c2.5,0,4.6,2,4.6,4.6l0,0v44.2
	C792.3,536,790.3,538,787.7,538z"/>
<path d="M787.7,674.4c-2.5,0-4.6-2.1-4.6-4.6l0,0V562c0-2.5,2-4.6,4.6-4.6s4.6,2,4.6,4.6l0,0v107.8
	C792.3,672.3,790.3,674.4,787.7,674.4z"/>
<path d="M877.5,641.1c-2.5,0-4.5-2.1-4.5-4.6v-24c0-2.5,2.1-4.6,4.6-4.6s4.6,2,4.6,4.6v24C882.2,639,880.1,641.1,877.5,641.1
	C877.6,641.1,877.5,641.1,877.5,641.1z"/>
<path d="M727.4,665.9c-2.5,0-4.6-2-4.6-4.6V633c0-2.5,2.1-4.6,4.6-4.6s4.6,2,4.6,4.6v28.3C731.9,663.9,729.9,665.9,727.4,665.9z"/>
<path d="M727.4,763.7c-2.5,0-4.6-2.1-4.6-4.6l0,0v-69.2c0-2.5,2.1-4.6,4.6-4.6s4.6,2,4.6,4.6v69.2
	C731.9,761.6,729.9,763.7,727.4,763.7z"/>
<path d="M758.2,518c-2.5,0-4.6-2.1-4.6-4.6l0,0v-68.3c0-2.5,2-4.6,4.6-4.6c2.5,0,4.6,2,4.6,4.6l0,0v68.3
	C762.8,516,760.8,518,758.2,518z"/>
<path d="M877.5,588.5c-2.5,0-4.5-2.1-4.5-4.6v-38.6c0-2.5,2.1-4.6,4.6-4.6s4.6,2,4.6,4.6v38.6C882.2,586.4,880.1,588.5,877.5,588.5
	C877.6,588.5,877.6,588.5,877.5,588.5z"/>
<path d="M787.7,717.1c-2.5,0-4.6-2.1-4.6-4.6l0,0v-12.3c0-2.5,2-4.6,4.6-4.6s4.6,2,4.6,4.6l0,0v12.3
	C792.3,715,790.3,717.1,787.7,717.1z"/>
<path d="M999.2,627h-69.9c-1.5,0-2.9-0.7-3.8-2c-0.8-1.3-1-2.9-0.4-4.3c5-12.2,5.1-25.8,0.3-38c-0.9-2.4,0.2-5,2.6-5.9
	c0.5-0.2,1.1-0.3,1.7-0.3h69.6c2.5,0,4.6,2.1,4.6,4.6l0,0v41.4C1003.8,625,1001.7,627,999.2,627z M935.7,617.8h58.9v-32.2H936
	C938.9,596.2,938.8,607.3,935.7,617.8L935.7,617.8z"/>
<path d="M271.8,627h-71c-2.5,0-4.6-2.1-4.6-4.6l0,0V581c0-2.5,2.1-4.6,4.6-4.6l0,0h68.6c2.5,0,4.6,2.1,4.6,4.6c0,0.5-0.1,1-0.2,1.4
	c-4.2,12.5-3.4,26.1,2.2,38c1.1,2.3,0.1,5-2.2,6.1C273.2,626.8,272.5,626.9,271.8,627L271.8,627z M205.4,617.8h59.7
	c-3.5-10.4-4.1-21.6-1.7-32.3h-58V617.8z"/>
<path d="M696.8,627H503.2c-2.5,0-4.6-2.1-4.6-4.6l0,0V581c0-2.5,2.1-4.6,4.6-4.6l0,0h193.5c2.5,0,4.6,2.1,4.6,4.6l0,0v41.4
	C701.3,625,699.3,627,696.8,627z M507.8,617.8h184.3v-32.2H507.8V617.8z"/>
<path d="M601.6,330.1H521c-2.5,0-4.6-2.1-4.6-4.6s2.1-4.6,4.6-4.6l0,0h80.7c2.5,0,4.6,2.1,4.6,4.6
	C606.2,328.1,604.2,330.1,601.6,330.1L601.6,330.1z"/>
<path d="M561.3,385.9c-2.5,0-4.6-2.1-4.6-4.6l0,0V269.8c0-2.5,2.1-4.6,4.6-4.6s4.6,2,4.6,4.6v111.6
	C565.9,383.9,563.8,385.9,561.3,385.9z"/>
<path d="M844.5,908.9h-80.7c-2.5,0-4.6-2-4.6-4.6s2-4.6,4.6-4.6l0,0h80.7c2.5,0,4.6,2,4.6,4.6S847.1,908.9,844.5,908.9L844.5,908.9z
	"/>
<path d="M804.2,964.7c-2.5,0-4.6-2.1-4.6-4.6l0,0V848.5c0-2.5,2.1-4.6,4.6-4.6s4.6,2,4.6,4.6v111.6
	C808.8,962.6,806.7,964.7,804.2,964.7z"/>
<path d="M489.1,271.4h-74.3c-2.5,0-4.6-2.1-4.6-4.6s2.1-4.6,4.6-4.6h74.3c2.5,0,4.6,2.1,4.6,4.6
	C493.6,269.3,491.6,271.4,489.1,271.4z"/>
<path d="M451.9,322.8c-2.5,0-4.6-2.1-4.6-4.6V215.4c0-2.5,2.1-4.6,4.6-4.6s4.6,2.1,4.6,4.6l0,0v102.8
	C456.5,320.7,454.4,322.8,451.9,322.8L451.9,322.8z"/>
</svg>
